<svg t="1719318602943" class="icon" viewBox="0 0 1024 1024" version="1.1" xmlns="http://www.w3.org/2000/svg" p-id="1047" width="200" height="200"><path d="M112.065989 303.949848h799.868022v479.920813H112.065989z" fill="#C5E4FA" p-id="1048"></path><path d="M671.973604 767.873301l239.960407-239.960407V319.947209h-31.994721L432.013198 767.873301h239.960406zM272.039593 767.873301h95.984163l447.926092-447.926092h-95.984162L272.039593 767.873301zM208.050152 767.873301l447.926092-447.926092h-79.986802L128.06335 767.873301h79.986802z" fill="#E3F2FF" p-id="1049"></path><path d="M48.076547 783.870661m15.997361 0l879.854824 0q15.99736 0 15.99736 15.997361l0 31.994721q0 15.99736-15.99736 15.99736l-879.854824 0q-15.99736 0-15.997361-15.99736l0-31.994721q0-15.99736 15.997361-15.997361Z" fill="#FFEFB8" p-id="1050"></path><path d="M48.076547 143.976244m31.994721 0l863.857464 0q31.994721 0 31.994721 31.994721l0 95.984162q0 31.994721-31.994721 31.994721l-863.857464 0q-31.994721 0-31.994721-31.994721l0-95.984162q0-31.994721 31.994721-31.994721Z" fill="#ACB7D0" p-id="1051"></path><path d="M607.984163 607.899697m-31.994721 0a31.994721 31.994721 0 1 0 63.989441 0 31.994721 31.994721 0 1 0-63.989441 0Z" fill="#72CAAF" p-id="1052"></path><path d="M480.005279 511.915534m-31.994721 0a31.994721 31.994721 0 1 0 63.989442 0 31.994721 31.994721 0 1 0-63.989442 0Z" fill="#72CAAF" p-id="1053"></path><path d="M304.034314 655.891778m-31.994721 0a31.994721 31.994721 0 1 0 63.989442 0 31.994721 31.994721 0 1 0-63.989442 0Z" fill="#72CAAF" p-id="1054"></path><path d="M943.928732 319.947209a47.992081 47.992081 0 0 0 47.992081-47.992082v-95.984162a47.992081 47.992081 0 0 0-47.992081-47.992082H599.345588l-51.671474-60.949943a47.992081 47.992081 0 0 0-73.747832 0L424.494438 127.978883H80.071268a47.992081 47.992081 0 0 0-47.992081 47.992082v95.984162a47.992081 47.992081 0 0 0 47.992081 47.992082h15.997361v447.926092H80.071268a47.992081 47.992081 0 0 0 0 95.984163h415.931372v63.989441a15.99736 15.99736 0 0 0 0 2.719552 47.992081 47.992081 0 1 0 30.874905 0A15.99736 15.99736 0 0 0 527.99736 927.846905v-63.989441h415.931372a47.992081 47.992081 0 0 0 0-95.984163h-15.997361V319.947209zM512 991.836347a15.99736 15.99736 0 1 1 15.99736-15.99736 15.99736 15.99736 0 0 1-15.99736 15.99736z m-13.277809-904.010838a15.99736 15.99736 0 0 1 12.317967-5.919024 14.557598 14.557598 0 0 1 12.317968 5.599077L557.432504 127.978883h-91.664876zM80.071268 287.952488a15.99736 15.99736 0 0 1-15.99736-15.997361v-95.984162a15.99736 15.99736 0 0 1 15.99736-15.997361h863.857464a15.99736 15.99736 0 0 1 15.99736 15.997361v95.984162a15.99736 15.99736 0 0 1-15.99736 15.997361H80.071268z m863.857464 511.915534a15.99736 15.99736 0 0 1 0 31.994721H80.071268a15.99736 15.99736 0 0 1 0-31.994721h863.857464z m-47.992082-31.994721H128.06335V599.901016l127.978883 53.431184V655.891778a47.992081 47.992081 0 0 0 95.984163 0 47.992081 47.992081 0 0 0-3.039499-15.997361l106.222473-86.865667a47.992081 47.992081 0 0 0 51.351527-0.959841l55.830788 41.913084A47.992081 47.992081 0 0 0 559.992081 607.899697a47.992081 47.992081 0 0 0 95.984163 0 47.992081 47.992081 0 0 0-4.799208-20.636595l116.780731-116.780732v65.109257a15.99736 15.99736 0 0 0 31.994721 0V431.928732a15.99736 15.99736 0 0 0-15.997361-15.997361h-103.822869a15.99736 15.99736 0 0 0 0 31.994721h65.109257l-116.780731 116.780731a47.192213 47.192213 0 0 0-47.192213 3.199472l-55.830788-41.913084A47.992081 47.992081 0 0 0 527.99736 511.915534a47.992081 47.992081 0 0 0-95.984162 0 47.992081 47.992081 0 0 0 3.039498 15.99736l-106.222473 86.865668a47.192213 47.192213 0 0 0-60.150075 8.798548L128.06335 565.186744V319.947209h767.8733z m-572.865477-111.981523A19.036859 19.036859 0 1 1 304.034314 636.854919 19.036859 19.036859 0 0 1 323.071173 655.891778zM480.005279 530.472472A18.556938 18.556938 0 1 1 498.562217 511.915534 18.556938 18.556938 0 0 1 480.005279 530.472472zM626.541101 607.899697A18.556938 18.556938 0 1 1 607.984163 589.342758 18.556938 18.556938 0 0 1 626.541101 607.899697z" fill="#8D6C9F" p-id="1055"></path><path d="M112.065989 191.968325a15.99736 15.99736 0 0 0-15.99736 15.997361v31.994721a15.99736 15.99736 0 0 0 31.994721 0v-31.994721a15.99736 15.99736 0 0 0-15.997361-15.997361zM192.052791 191.968325a15.99736 15.99736 0 0 0-15.99736 15.997361v31.994721a15.99736 15.99736 0 0 0 31.994721 0v-31.994721a15.99736 15.99736 0 0 0-15.997361-15.997361zM272.039593 191.968325a15.99736 15.99736 0 0 0-15.99736 15.997361v31.994721a15.99736 15.99736 0 0 0 31.994721 0v-31.994721a15.99736 15.99736 0 0 0-15.997361-15.997361zM352.026396 191.968325a15.99736 15.99736 0 0 0-15.997361 15.997361v31.994721a15.99736 15.99736 0 0 0 31.994721 0v-31.994721a15.99736 15.99736 0 0 0-15.99736-15.997361zM432.013198 191.968325a15.99736 15.99736 0 0 0-15.997361 15.997361v31.994721a15.99736 15.99736 0 0 0 31.994721 0v-31.994721a15.99736 15.99736 0 0 0-15.99736-15.997361zM512 191.968325a15.99736 15.99736 0 0 0-15.99736 15.997361v31.994721a15.99736 15.99736 0 0 0 31.99472 0v-31.994721a15.99736 15.99736 0 0 0-15.99736-15.997361zM591.986802 191.968325a15.99736 15.99736 0 0 0-15.99736 15.997361v31.994721a15.99736 15.99736 0 0 0 31.994721 0v-31.994721a15.99736 15.99736 0 0 0-15.997361-15.997361zM671.973604 191.968325a15.99736 15.99736 0 0 0-15.99736 15.997361v31.994721a15.99736 15.99736 0 0 0 31.994721 0v-31.994721a15.99736 15.99736 0 0 0-15.997361-15.997361zM751.960407 191.968325a15.99736 15.99736 0 0 0-15.997361 15.997361v31.994721a15.99736 15.99736 0 0 0 31.994721 0v-31.994721a15.99736 15.99736 0 0 0-15.99736-15.997361zM831.947209 191.968325a15.99736 15.99736 0 0 0-15.997361 15.997361v31.994721a15.99736 15.99736 0 0 0 31.994721 0v-31.994721a15.99736 15.99736 0 0 0-15.99736-15.997361zM927.931371 207.965686a15.99736 15.99736 0 0 0-31.994721 0v31.994721a15.99736 15.99736 0 0 0 31.994721 0z" fill="#8D6C9F" p-id="1056"></path></svg>